<?xml version="1.0" encoding="utf-8"?>
<svg version="1.1" xmlns:xlink="http://www.w3.org/1999/xlink" width="300px" height="170px" xmlns="http://www.w3.org/2000/svg">
  <g transform="matrix(1 0 0 1 -102 -356 )">
    <path d="M 102 356  L 402 356  L 402 526  L 102 526  L 102 356  " fill-rule="nonzero" fill="#cccccc" stroke="none" />
    <path d="M 114 368  L 390 368  L 390 514  L 114 514  L 114 368  " fill-rule="nonzero" fill="#ffffff" stroke="none" />
    <path d="M 270.75 407  C 263.61 407  258 401.39  258 394.25  C 258 387.11  263.61 381.5  270.75 381.5  C 277.89 381.5  283.5 387.11  283.5 394.25  C 283.5 401.39  277.89 407  270.75 407  " fill-rule="nonzero" fill="#cccccc" stroke="none" />
    <path d="M 119 510  L 119 434.65  L 185.75 400.4  L 279.2 463.42  L 332.6 420.95  L 386 463.42  L 386 510  L 119 510  " fill-rule="nonzero" fill="#169bd5" stroke="none" />
  </g>
</svg>