<?xml version="1.0" encoding="utf-8"?>
<svg version="1.1" xmlns:xlink="http://www.w3.org/1999/xlink" width="99px" height="48px" xmlns="http://www.w3.org/2000/svg">
  <g transform="matrix(1 0 0 1 -966 -13 )">
    <path d="M 967 18  A 4 4 0 0 1 971 14 L 1060 14  A 4 4 0 0 1 1064 18 L 1064 56  A 4 4 0 0 1 1060 60 L 971 60  A 4 4 0 0 1 967 56 L 967 18  Z " fill-rule="nonzero" fill="#000000" stroke="none" fill-opacity="0.705882352941177" />
    <path d="M 966.5 18  A 4.5 4.5 0 0 1 971 13.5 L 1060 13.5  A 4.5 4.5 0 0 1 1064.5 18 L 1064.5 56  A 4.5 4.5 0 0 1 1060 60.5 L 971 60.5  A 4.5 4.5 0 0 1 966.5 56 L 966.5 18  Z " stroke-width="1" stroke="#000000" fill="none" stroke-opacity="0.737254901960784" />
  </g>
</svg>